<svg width="180" height="41" viewBox="0 0 180 41" fill="none" xmlns="http://www.w3.org/2000/svg">
<rect x="0.00195312" y="1.23242" width="4.00515" height="21.5064" rx="2.00258" fill="#256FB3"/>
<rect x="11.083" y="9.66797" width="3.97041" height="13.0693" rx="1.98521" fill="#256FB3"/>
<ellipse cx="7.89438" cy="6.15021" rx="2.76742" ry="2.7674" fill="url(#paint0_linear_1393_7693)"/>
<path d="M16.5434 6.29688C13.4111 12.3745 0 6.29688 0 17.3646C4.71215 12.6571 16.5434 16.8837 16.5434 6.29688Z" fill="url(#paint1_linear_1393_7693)"/>
<path d="M25.0357 22.6653C23.8413 22.6653 22.7682 22.4711 21.8165 22.0827C20.8649 21.6942 20.054 21.1553 19.3839 20.4658C18.7236 19.7666 18.2138 18.9558 17.8545 18.0332C17.5049 17.101 17.3301 16.1007 17.3301 15.0325V14.4499C17.3301 13.236 17.5049 12.1338 17.8545 11.1433C18.2041 10.1431 18.6993 9.28366 19.3402 8.56505C19.9812 7.84644 20.7483 7.29292 21.6417 6.90448C22.5351 6.51604 23.5208 6.32182 24.5987 6.32182C25.7155 6.32182 26.7011 6.51119 27.5557 6.88991C28.4103 7.25893 29.124 7.78332 29.697 8.46309C30.2699 9.14285 30.702 9.95857 30.9934 10.9102C31.2847 11.8522 31.4304 12.8961 31.4304 14.042V14.042C31.4304 14.935 30.7065 15.6589 29.8135 15.6589H20.4036C19.6715 15.6589 19.078 15.0654 19.078 14.3334V14.3334C19.078 13.6013 19.6715 13.0078 20.4036 13.0078H27.3518C27.5127 13.0078 27.6431 12.8774 27.6431 12.7165V12.7165C27.6237 12.1047 27.5071 11.5463 27.2935 11.0413C27.0799 10.5267 26.7497 10.1188 26.303 9.81776C25.8563 9.50701 25.2785 9.35164 24.5696 9.35164C23.9966 9.35164 23.4965 9.47788 23.0692 9.73036C22.6517 9.97314 22.3021 10.3227 22.0205 10.7791C21.7486 11.2258 21.5446 11.76 21.4087 12.3815C21.2727 13.003 21.2047 13.6924 21.2047 14.4499V15.0325C21.2047 15.6929 21.2921 16.3047 21.4669 16.8679C21.6514 17.4311 21.9185 17.9215 22.2681 18.3391C22.6274 18.747 23.0547 19.0674 23.5499 19.3005C24.0549 19.5239 24.6279 19.6355 25.2688 19.6355C26.0748 19.6355 26.8031 19.4802 27.4537 19.1694C27.6363 19.0808 27.8122 18.9807 27.9814 18.8691C28.703 18.3931 29.7088 18.3128 30.3087 18.9353V18.9353C30.7756 19.4197 30.8459 20.1759 30.3637 20.6451C30.1827 20.8212 29.9847 20.9945 29.7698 21.165C29.2163 21.6117 28.5462 21.9759 27.7596 22.2575C26.973 22.5294 26.0651 22.6653 25.0357 22.6653Z" fill="#256FB3"/>
<path d="M41.1986 19.0237V11.7551C41.1986 11.221 41.1064 10.7597 40.9218 10.3713C40.7373 9.98285 40.4557 9.68181 40.077 9.46817C39.6983 9.25453 39.2176 9.14771 38.6349 9.14771C38.1202 9.14771 37.6687 9.23511 37.2802 9.4099C36.9015 9.5847 36.6102 9.83233 36.4063 10.1528V10.1528C36.0618 10.6777 35.5914 11.2307 34.9635 11.2307H34.1677C33.1032 11.2307 32.2055 10.32 32.7064 9.38077V9.38077C33.0171 8.7884 33.459 8.26401 34.0319 7.8076C34.6146 7.34147 35.3089 6.97731 36.1149 6.71512C36.9306 6.45292 37.8435 6.32182 38.8534 6.32182C40.0479 6.32182 41.1112 6.52575 42.0435 6.93361C42.9854 7.33176 43.7235 7.93384 44.2576 8.73985C44.8014 9.54586 45.0733 10.5607 45.0733 11.7842V18.6596C45.0733 19.4462 45.1218 20.1211 45.2189 20.6843C45.3221 21.2188 45.4705 21.6853 45.6642 22.084C45.6778 22.1119 45.6851 22.1426 45.6851 22.1737V22.1737C45.6851 22.2843 45.5954 22.374 45.4847 22.374H43.051C42.2679 22.374 41.5431 21.917 41.3949 21.148C41.3769 21.0545 41.36 20.9582 41.3443 20.8591C41.2472 20.2376 41.1986 19.6258 41.1986 19.0237ZM40.6086 12.7747C41.2344 12.7747 41.744 13.2779 41.7519 13.9036V13.9036C41.7601 14.5408 41.2458 15.0617 40.6086 15.0617H39.3341C38.732 15.0617 38.2028 15.1248 37.7464 15.251C37.29 15.3676 36.9161 15.5424 36.6248 15.7754C36.3334 15.9988 36.1149 16.2707 35.9693 16.5911C35.8236 16.9019 35.7508 17.2563 35.7508 17.6545C35.7508 18.0429 35.8382 18.3925 36.013 18.7033C36.1975 19.014 36.4597 19.2617 36.7995 19.4462C37.1491 19.621 37.557 19.7084 38.0231 19.7084C38.7029 19.7084 39.2953 19.5724 39.8002 19.3005C40.3052 19.0189 40.6985 18.679 40.9801 18.2808V18.2808C41.2089 17.9574 41.8991 17.8458 42.1188 18.1754L42.3826 18.5711C42.481 18.7187 42.5068 18.9044 42.4402 19.0688C42.3107 19.3885 42.1396 19.7231 41.9269 20.0725C41.655 20.5192 41.3054 20.9368 40.8781 21.3252C40.4509 21.7137 39.9362 22.0341 39.3341 22.2866C38.732 22.5391 38.0328 22.6653 37.2365 22.6653C36.2169 22.6653 35.3041 22.4614 34.4981 22.0536C33.692 21.6457 33.056 21.0873 32.5899 20.3784C32.1237 19.6695 31.8907 18.8635 31.8907 17.9604C31.8907 17.1252 32.046 16.3872 32.3568 15.7463C32.6675 15.1054 33.1288 14.5664 33.7406 14.1294C34.3524 13.6827 35.1098 13.3477 36.013 13.1243C36.9258 12.8913 37.9697 12.7747 39.1447 12.7747H40.6086Z" fill="#256FB3"/>
<path d="M50.894 9.83233V20.4512C50.894 21.5132 50.0332 22.374 48.9712 22.374V22.374C47.9093 22.374 47.0485 21.5132 47.0485 20.4512V8.49157C47.0485 7.45415 47.8895 6.61315 48.9269 6.61315V6.61315C49.9182 6.61315 50.7389 7.38348 50.8016 8.37281L50.894 9.83233ZM55.0891 6.38009C55.4559 6.42241 55.6824 6.75509 55.6764 7.12422L55.64 9.36072C55.6338 9.74506 55.2832 10.0345 54.8998 10.0071V10.0071C54.6376 9.9877 54.39 9.97799 54.1569 9.97799C53.5645 9.97799 53.045 10.0605 52.5983 10.2256C52.1516 10.381 51.7777 10.6092 51.4767 10.9102C51.1853 11.2113 50.962 11.5803 50.8066 12.0173C50.6965 12.3201 50.6205 12.6521 50.5787 13.0135C50.5501 13.2602 50.3325 13.4479 50.086 13.4176V13.4176C49.8737 13.3916 49.7134 13.2112 49.719 12.9973C49.7414 12.1392 49.8418 11.3367 50.02 10.5898C50.224 9.73522 50.5201 8.98748 50.9086 8.34656C51.297 7.70563 51.7826 7.21038 52.3652 6.86078C52.9576 6.50148 53.6374 6.32182 54.4045 6.32182C54.6182 6.32182 54.8464 6.34125 55.0891 6.38009V6.38009Z" fill="#256FB3"/>
<path d="M65.711 10.9248L69.5711 8.39025C70.1829 7.9824 70.6053 7.5891 70.8383 7.21038C71.0714 6.83165 71.1879 6.37523 71.1879 5.84113C71.1879 5.3653 71.0034 4.92345 70.6344 4.51559C70.2751 4.09802 69.7653 3.88923 69.1049 3.88923C68.6388 3.88923 68.2455 3.99605 67.9251 4.20969C67.6046 4.42333 67.3618 4.70981 67.1967 5.06911C67.0414 5.41871 66.9637 5.80714 66.9637 6.23442C66.9637 6.67142 67.0754 7.11812 67.2987 7.57453C67.5318 8.03095 67.8425 8.51164 68.231 9.01661C68.6291 9.51187 69.071 10.0508 69.5565 10.6335L77.2091 19.6116C78.1363 20.6994 77.3632 22.374 75.9339 22.374V22.374C75.4455 22.374 74.9815 22.1609 74.6631 21.7905L66.9782 12.8476C66.2888 11.993 65.677 11.2064 65.1429 10.4878C64.6088 9.76921 64.1912 9.07488 63.8902 8.40482C63.5988 7.72505 63.4532 7.02587 63.4532 6.30726C63.4532 5.20021 63.6862 4.23883 64.1524 3.42311C64.6185 2.60739 65.274 1.97618 66.1188 1.52947C66.9734 1.08277 67.9736 0.859418 69.1195 0.859418C70.2071 0.859418 71.1442 1.08277 71.9308 1.52947C72.7271 1.96647 73.3438 2.54912 73.7808 3.27744C74.2178 4.00576 74.4363 4.80206 74.4363 5.66634C74.4363 6.32668 74.3149 6.93847 74.0721 7.5017C73.8293 8.05523 73.4943 8.56505 73.067 9.03118C72.6397 9.48759 72.1445 9.91973 71.5812 10.3276L67.0365 13.5905C66.5995 13.9595 66.2693 14.3236 66.046 14.6829C65.8324 15.0325 65.6867 15.3579 65.609 15.6589C65.541 15.9599 65.507 16.2416 65.507 16.5037C65.507 17.0961 65.6333 17.6302 65.8858 18.1061C66.148 18.5722 66.517 18.946 66.9928 19.2277C67.4784 19.4996 68.0513 19.6355 68.7117 19.6355C69.5177 19.6355 70.2945 19.4559 71.0423 19.0966C71.79 18.7373 72.4601 18.2274 73.0524 17.5671C73.6545 16.9068 74.1304 16.1202 74.4799 15.2073C74.6541 14.7601 74.7861 14.2911 74.8759 13.8005C75.0394 12.9063 75.7558 12.163 76.6649 12.163V12.163C77.574 12.163 78.3223 12.9021 78.2245 13.8059C78.1737 14.275 78.1005 14.7325 78.005 15.1782C77.8011 16.1202 77.4709 16.9941 77.0145 17.8002C76.5581 18.6062 75.9609 19.3248 75.2228 19.956C75.1549 20.0143 75.0723 20.0919 74.9752 20.189C74.8878 20.2862 74.8101 20.3638 74.7421 20.4221C73.8585 21.1796 72.9019 21.7477 71.8726 22.1264C70.8529 22.4954 69.741 22.6799 68.5369 22.6799C67.1191 22.6799 65.8955 22.4226 64.8661 21.9079C63.8368 21.3932 63.0405 20.6843 62.4772 19.7812C61.9237 18.8781 61.6469 17.8439 61.6469 16.6785C61.6469 15.8143 61.8169 15.0617 62.1568 14.4208C62.5064 13.7701 62.9871 13.168 63.5988 12.6145C64.2106 12.0513 64.9147 11.488 65.711 10.9248Z" fill="#256FB3"/>
<path d="M96.7018 9.91973C97.5707 9.91973 98.275 10.6241 98.275 11.4929V11.4929C98.275 12.3617 97.5707 13.0661 96.7018 13.0661H90.8409C89.9721 13.0661 89.2678 12.3617 89.2678 11.4929V11.4929C89.2678 10.6241 89.9721 9.91973 90.8409 9.91973H96.7018ZM88.3574 1.16531C89.4635 1.16531 90.3603 2.06204 90.3603 3.1682V20.3711C90.3603 21.4773 89.4635 22.374 88.3574 22.374V22.374C87.2512 22.374 86.3545 21.4773 86.3545 20.3711V3.1682C86.3545 2.06203 87.2512 1.16531 88.3574 1.16531V1.16531V1.16531ZM99.2437 1.16531C100.35 1.16531 101.247 2.06203 101.247 3.16819V20.3711C101.247 21.4773 100.35 22.374 99.2437 22.374V22.374C98.1375 22.374 97.2408 21.4773 97.2408 20.3711V3.1682C97.2408 2.06203 98.1375 1.16531 99.2437 1.16531V1.16531Z" fill="#256FB3"/>
<path d="M111.283 22.6653C110.089 22.6653 109.016 22.4711 108.064 22.0827C107.112 21.6942 106.302 21.1553 105.631 20.4658C104.971 19.7666 104.461 18.9558 104.102 18.0332C103.752 17.101 103.578 16.1007 103.578 15.0325V14.4499C103.578 13.236 103.752 12.1338 104.102 11.1433C104.452 10.1431 104.947 9.28366 105.588 8.56505C106.229 7.84644 106.996 7.29292 107.889 6.90448C108.783 6.51604 109.768 6.32182 110.846 6.32182C111.963 6.32182 112.949 6.51119 113.803 6.88991C114.658 7.25893 115.372 7.78332 115.944 8.46309C116.517 9.14285 116.95 9.95857 117.241 10.9102C117.532 11.8522 117.678 12.8961 117.678 14.042V14.042C117.678 14.935 116.954 15.6589 116.061 15.6589H106.651C105.919 15.6589 105.326 15.0654 105.326 14.3334V14.3334C105.326 13.6013 105.919 13.0078 106.651 13.0078H113.599C113.76 13.0078 113.891 12.8774 113.891 12.7165V12.7165C113.871 12.1047 113.755 11.5463 113.541 11.0413C113.327 10.5267 112.997 10.1188 112.551 9.81776C112.104 9.50701 111.526 9.35164 110.817 9.35164C110.244 9.35164 109.744 9.47788 109.317 9.73036C108.899 9.97314 108.55 10.3227 108.268 10.7791C107.996 11.2258 107.792 11.76 107.656 12.3815C107.52 13.003 107.452 13.6924 107.452 14.4499V15.0325C107.452 15.6929 107.54 16.3047 107.714 16.8679C107.899 17.4311 108.166 17.9215 108.516 18.3391C108.875 18.747 109.302 19.0674 109.797 19.3005C110.302 19.5239 110.875 19.6355 111.516 19.6355C112.322 19.6355 113.051 19.4802 113.701 19.1694C113.884 19.0808 114.06 18.9807 114.229 18.8691C114.951 18.3931 115.956 18.3128 116.556 18.9353V18.9353C117.023 19.4197 117.093 20.1759 116.611 20.6451C116.43 20.8212 116.232 20.9945 116.017 21.165C115.464 21.6117 114.794 21.9759 114.007 22.2575C113.221 22.5294 112.313 22.6653 111.283 22.6653Z" fill="#256FB3"/>
<path d="M127.446 19.0237V11.7551C127.446 11.221 127.354 10.7597 127.169 10.3713C126.985 9.98285 126.703 9.68181 126.325 9.46817C125.946 9.25453 125.465 9.14771 124.882 9.14771C124.368 9.14771 123.916 9.23511 123.528 9.4099C123.149 9.5847 122.858 9.83233 122.654 10.1528V10.1528C122.309 10.6777 121.839 11.2307 121.211 11.2307H120.415C119.351 11.2307 118.453 10.32 118.954 9.38077V9.38077C119.265 8.7884 119.707 8.26401 120.279 7.8076C120.862 7.34147 121.556 6.97731 122.362 6.71512C123.178 6.45292 124.091 6.32182 125.101 6.32182C126.295 6.32182 127.359 6.52575 128.291 6.93361C129.233 7.33176 129.971 7.93384 130.505 8.73985C131.049 9.54586 131.321 10.5607 131.321 11.7842V18.6596C131.321 19.4462 131.369 20.1211 131.466 20.6843C131.57 21.2188 131.718 21.6853 131.912 22.084C131.925 22.1119 131.933 22.1426 131.933 22.1737V22.1737C131.933 22.2843 131.843 22.374 131.732 22.374H129.299C128.515 22.374 127.791 21.917 127.642 21.148C127.624 21.0545 127.608 20.9582 127.592 20.8591C127.495 20.2376 127.446 19.6258 127.446 19.0237ZM126.856 12.7747C127.482 12.7747 127.991 13.2779 127.999 13.9036V13.9036C128.008 14.5408 127.493 15.0617 126.856 15.0617H125.582C124.98 15.0617 124.45 15.1248 123.994 15.251C123.537 15.3676 123.164 15.5424 122.872 15.7754C122.581 15.9988 122.362 16.2707 122.217 16.5911C122.071 16.9019 121.998 17.2563 121.998 17.6545C121.998 18.0429 122.086 18.3925 122.26 18.7033C122.445 19.014 122.707 19.2617 123.047 19.4462C123.397 19.621 123.805 19.7084 124.271 19.7084C124.95 19.7084 125.543 19.5724 126.048 19.3005C126.553 19.0189 126.946 18.679 127.228 18.2808V18.2808C127.456 17.9574 128.147 17.8458 128.366 18.1754L128.63 18.5711C128.729 18.7187 128.754 18.9044 128.688 19.0688C128.558 19.3885 128.387 19.7231 128.174 20.0725C127.903 20.5192 127.553 20.9368 127.126 21.3252C126.698 21.7137 126.184 22.0341 125.582 22.2866C124.98 22.5391 124.28 22.6653 123.484 22.6653C122.464 22.6653 121.552 22.4614 120.746 22.0536C119.94 21.6457 119.304 21.0873 118.837 20.3784C118.371 19.6695 118.138 18.8635 118.138 17.9604C118.138 17.1252 118.294 16.3872 118.604 15.7463C118.915 15.1054 119.376 14.5664 119.988 14.1294C120.6 13.6827 121.357 13.3477 122.26 13.1243C123.173 12.8913 124.217 12.7747 125.392 12.7747H126.856Z" fill="#256FB3"/>
<path d="M135.445 0C136.51 0 137.375 0.864111 137.375 1.93005V20.444C137.375 21.5099 136.51 22.374 135.445 22.374V22.374C134.379 22.374 133.515 21.5099 133.515 20.444V11.187V1.93004C133.515 0.86411 134.379 0 135.445 0V0Z" fill="#256FB3"/>
<path d="M7.11231 37.0996H6.15406V33.602H1.93778V37.0996H0.97954V29.4177H1.93778V32.7396H6.15406V29.4177H7.11231V37.0996ZM11.2434 32.0688C10.3278 32.0688 9.68892 32.7396 9.61972 33.7564H12.7819C12.7606 32.7396 12.1537 32.0688 11.2434 32.0688ZM12.7553 35.6143H13.671C13.3941 36.5992 12.5104 37.2008 11.2541 37.2008C9.66231 37.2008 8.6668 36.0509 8.6668 34.2355C8.6668 32.4308 9.67828 31.2596 11.2541 31.2596C12.8032 31.2596 13.7455 32.3616 13.7455 34.145V34.4964H9.61972V34.539C9.66763 35.6729 10.3011 36.3916 11.2754 36.3916C12.0153 36.3916 12.5157 36.1201 12.7553 35.6143ZM16.9503 36.3969C17.8926 36.3969 18.59 35.7794 18.59 34.9595V34.4325L17.0461 34.5336C16.1731 34.5922 15.7898 34.8956 15.7898 35.4706C15.7898 36.0562 16.2848 36.3969 16.9503 36.3969ZM16.7799 37.2008C15.6673 37.2008 14.8422 36.5406 14.8422 35.4919C14.8422 34.4644 15.5981 33.8735 16.9343 33.7937L18.59 33.6925V33.1708C18.59 32.4628 18.1481 32.0741 17.291 32.0741C16.6043 32.0741 16.1251 32.335 15.9974 32.7875H15.0711C15.1935 31.8665 16.0985 31.2596 17.3229 31.2596C18.723 31.2596 19.5056 31.9783 19.5056 33.1708V37.0996H18.6325V36.2532H18.5474C18.1747 36.8654 17.5465 37.2008 16.7799 37.2008ZM21.2518 37.0996V29.0823H22.1674V37.0996H21.2518ZM23.9668 37.0996V31.3608H24.8824V37.0996H23.9668ZM24.4246 30.1949C24.0733 30.1949 23.7858 29.9074 23.7858 29.5561C23.7858 29.2047 24.0733 28.9173 24.4246 28.9173C24.776 28.9173 25.0634 29.2047 25.0634 29.5561C25.0634 29.9074 24.776 30.1949 24.4246 30.1949ZM26.6286 37.0996V31.3608H27.5016V32.2658H27.5868C27.8743 31.6323 28.4333 31.2596 29.3117 31.2596C30.6 31.2596 31.3187 32.0209 31.3187 33.3837V37.0996H30.403V33.6073C30.403 32.5746 29.9665 32.0848 29.0508 32.0848C28.1351 32.0848 27.5442 32.697 27.5442 33.7032V37.0996H26.6286ZM35.3167 36.2052C36.3814 36.2052 37.0202 35.3961 37.0202 34.145C37.0202 32.894 36.3761 32.0848 35.3167 32.0848C34.2519 32.0848 33.6557 32.894 33.6557 34.145C33.6557 35.3961 34.2519 36.2052 35.3167 36.2052ZM35.3593 39.3036C33.9751 39.3036 33.0914 38.6807 32.953 37.7331H33.9219C34.023 38.2016 34.5341 38.505 35.3593 38.505C36.3867 38.505 36.9989 37.9993 36.9989 37.1528V36.0242H36.9137C36.5517 36.6578 35.9023 37.0144 35.1144 37.0144C33.6291 37.0144 32.7081 35.8645 32.7081 34.145C32.7081 32.4255 33.6397 31.2596 35.1144 31.2596C35.9182 31.2596 36.6263 31.6536 36.9563 32.2711H37.0415V31.3608H37.9146V37.2008C37.9146 38.4837 36.9244 39.3036 35.3593 39.3036ZM50.4037 37.0996H49.5093V31.233H49.4455L47.0232 37.0464H46.214L43.7918 31.233H43.7279V37.0996H42.8336V29.4177H43.9462L46.576 35.774H46.6612L49.2911 29.4177H50.4037V37.0996ZM52.267 37.0996V31.3608H53.1826V37.0996H52.267ZM52.7248 30.1949C52.3734 30.1949 52.086 29.9074 52.086 29.5561C52.086 29.2047 52.3734 28.9173 52.7248 28.9173C53.0761 28.9173 53.3636 29.2047 53.3636 29.5561C53.3636 29.9074 53.0761 30.1949 52.7248 30.1949ZM54.9288 37.0996V31.3608H55.8018V32.2658H55.887C56.1745 31.6323 56.7334 31.2596 57.6118 31.2596C58.9001 31.2596 59.6188 32.0209 59.6188 33.3837V37.0996H58.7032V33.6073C58.7032 32.5746 58.2666 32.0848 57.351 32.0848C56.4353 32.0848 55.8444 32.697 55.8444 33.7032V37.0996H54.9288ZM63.4199 37.2008C61.9506 37.2008 61.0083 36.0349 61.0083 34.2302C61.0083 32.4308 61.9612 31.2596 63.4199 31.2596C64.2184 31.2596 64.8945 31.6376 65.2192 32.2658H65.2991V29.0823H66.2148V37.0996H65.3417V36.184H65.2565C64.8945 36.8228 64.2131 37.2008 63.4199 37.2008ZM63.6328 32.0848C62.5894 32.0848 61.9559 32.894 61.9559 34.2302C61.9559 35.5717 62.5841 36.3756 63.6328 36.3756C64.6762 36.3756 65.3204 35.5558 65.3204 34.2302C65.3204 32.9153 64.6709 32.0848 63.6328 32.0848ZM67.8597 32.9312C67.8597 31.9783 68.7807 31.2596 69.9998 31.2596C71.203 31.2596 72.0388 31.8559 72.1612 32.7982H71.2562C71.1337 32.3403 70.6866 32.0369 69.9945 32.0369C69.3131 32.0369 68.7807 32.3829 68.7807 32.894C68.7807 33.2879 69.1001 33.5328 69.7762 33.6978L70.6599 33.9108C71.7406 34.1716 72.2623 34.6401 72.2623 35.4653C72.2623 36.4927 71.2668 37.2008 69.9626 37.2008C68.6849 37.2008 67.8065 36.5885 67.7054 35.6356H68.6476C68.802 36.1201 69.2598 36.4288 69.9945 36.4288C70.7664 36.4288 71.3201 36.0615 71.3201 35.5345C71.3201 35.1405 71.0219 34.8744 70.4097 34.7253L69.4249 34.4857C68.3495 34.2249 67.8597 33.7617 67.8597 32.9312ZM74.28 39.0534H73.5932L74.099 36.0242H75.1158L74.28 39.0534ZM83.0852 37.0996H82.1269V30.2801H79.6515V29.4177H85.5607V30.2801H83.0852V37.0996ZM86.125 37.0996V31.3608H86.998V32.2126H87.0832C87.2536 31.6536 87.9137 31.2596 88.675 31.2596C88.824 31.2596 89.0157 31.2703 89.1328 31.2863V32.2019C89.0583 32.1806 88.7282 32.1487 88.5472 32.1487C87.6741 32.1487 87.0406 32.7343 87.0406 33.5435V37.0996H86.125ZM92.0448 36.3969C92.9871 36.3969 93.6844 35.7794 93.6844 34.9595V34.4325L92.1406 34.5336C91.2675 34.5922 90.8842 34.8956 90.8842 35.4706C90.8842 36.0562 91.3793 36.3969 92.0448 36.3969ZM91.8744 37.2008C90.7618 37.2008 89.9366 36.5406 89.9366 35.4919C89.9366 34.4644 90.6926 33.8735 92.0288 33.7937L93.6844 33.6925V33.1708C93.6844 32.4628 93.2426 32.0741 92.3855 32.0741C91.6988 32.0741 91.2196 32.335 91.0919 32.7875H90.1656C90.288 31.8665 91.193 31.2596 92.4174 31.2596C93.8175 31.2596 94.6001 31.9783 94.6001 33.1708V37.0996H93.727V36.2532H93.6419C93.2692 36.8654 92.641 37.2008 91.8744 37.2008ZM96.293 37.0996V31.3608H97.1661V32.2658H97.2513C97.5387 31.6323 98.0977 31.2596 98.9761 31.2596C100.264 31.2596 100.983 32.0209 100.983 33.3837V37.0996H100.067V33.6073C100.067 32.5746 99.6309 32.0848 98.7152 32.0848C97.7996 32.0848 97.2087 32.697 97.2087 33.7032V37.0996H96.293ZM102.527 32.9312C102.527 31.9783 103.448 31.2596 104.667 31.2596C105.87 31.2596 106.706 31.8559 106.828 32.7982H105.923C105.801 32.3403 105.354 32.0369 104.662 32.0369C103.98 32.0369 103.448 32.3829 103.448 32.894C103.448 33.2879 103.767 33.5328 104.443 33.6978L105.327 33.9108C106.408 34.1716 106.93 34.6401 106.93 35.4653C106.93 36.4927 105.934 37.2008 104.63 37.2008C103.352 37.2008 102.474 36.5885 102.373 35.6356H103.315C103.469 36.1201 103.927 36.4288 104.662 36.4288C105.434 36.4288 105.987 36.0615 105.987 35.5345C105.987 35.1405 105.689 34.8744 105.077 34.7253L104.092 34.4857C103.017 34.2249 102.527 33.7617 102.527 32.9312ZM108.75 37.0996V32.1274H107.797V31.3608H108.75V30.722C108.75 29.5774 109.325 29.0291 110.416 29.0291C110.64 29.0291 110.842 29.045 111.034 29.0823V29.8276C110.922 29.8063 110.768 29.801 110.603 29.801C109.943 29.801 109.666 30.1204 109.666 30.7486V31.3608H110.981V32.1274H109.666V37.0996H108.75ZM114.43 37.2008C112.796 37.2008 111.785 36.0722 111.785 34.2302C111.785 32.3829 112.796 31.2596 114.43 31.2596C116.065 31.2596 117.076 32.3829 117.076 34.2302C117.076 36.0722 116.065 37.2008 114.43 37.2008ZM114.43 36.3756C115.516 36.3756 116.129 35.5877 116.129 34.2302C116.129 32.8674 115.516 32.0848 114.43 32.0848C113.344 32.0848 112.732 32.8674 112.732 34.2302C112.732 35.5877 113.344 36.3756 114.43 36.3756ZM118.514 37.0996V31.3608H119.387V32.2126H119.472C119.642 31.6536 120.302 31.2596 121.064 31.2596C121.213 31.2596 121.404 31.2703 121.521 31.2863V32.2019C121.447 32.1806 121.117 32.1487 120.936 32.1487C120.063 32.1487 119.429 32.7343 119.429 33.5435V37.0996H118.514ZM122.773 37.0996V31.3608H123.646V32.2658H123.731C123.992 31.627 124.567 31.2596 125.333 31.2596C126.11 31.2596 126.653 31.6696 126.92 32.2658H127.005C127.314 31.6589 127.968 31.2596 128.762 31.2596C129.933 31.2596 130.588 31.9304 130.588 33.1335V37.0996H129.672V33.3465C129.672 32.5 129.273 32.0848 128.463 32.0848C127.665 32.0848 127.133 32.681 127.133 33.4104V37.0996H126.217V33.2027C126.217 32.5213 125.743 32.0848 125.019 32.0848C124.268 32.0848 123.688 32.7343 123.688 33.5435V37.0996H122.773ZM132.28 37.0996V31.3608H133.196V37.0996H132.28ZM132.738 30.1949C132.387 30.1949 132.099 29.9074 132.099 29.5561C132.099 29.2047 132.387 28.9173 132.738 28.9173C133.09 28.9173 133.377 29.2047 133.377 29.5561C133.377 29.9074 133.09 30.1949 132.738 30.1949ZM134.942 37.0996V31.3608H135.815V32.2658H135.9C136.188 31.6323 136.747 31.2596 137.625 31.2596C138.914 31.2596 139.632 32.0209 139.632 33.3837V37.0996H138.717V33.6073C138.717 32.5746 138.28 32.0848 137.364 32.0848C136.449 32.0848 135.858 32.697 135.858 33.7032V37.0996H134.942ZM143.63 36.2052C144.695 36.2052 145.334 35.3961 145.334 34.145C145.334 32.894 144.69 32.0848 143.63 32.0848C142.566 32.0848 141.969 32.894 141.969 34.145C141.969 35.3961 142.566 36.2052 143.63 36.2052ZM143.673 39.3036C142.289 39.3036 141.405 38.6807 141.267 37.7331H142.236C142.337 38.2016 142.848 38.505 143.673 38.505C144.7 38.505 145.313 37.9993 145.313 37.1528V36.0242H145.227C144.865 36.6578 144.216 37.0144 143.428 37.0144C141.943 37.0144 141.022 35.8645 141.022 34.145C141.022 32.4255 141.953 31.2596 143.428 31.2596C144.232 31.2596 144.94 31.6536 145.27 32.2711H145.355V31.3608H146.228V37.2008C146.228 38.4837 145.238 39.3036 143.673 39.3036ZM155.811 36.2372V37.0996H151.147V29.4177H152.105V36.2372H155.811ZM157.248 37.0996V31.3608H158.164V37.0996H157.248ZM157.706 30.1949C157.355 30.1949 157.067 29.9074 157.067 29.5561C157.067 29.2047 157.355 28.9173 157.706 28.9173C158.057 28.9173 158.345 29.2047 158.345 29.5561C158.345 29.9074 158.057 30.1949 157.706 30.1949ZM164.595 31.3608L162.47 37.0996H161.534L159.409 31.3608H160.389L161.959 36.0881H162.045L163.615 31.3608H164.595ZM167.895 32.0688C166.98 32.0688 166.341 32.7396 166.272 33.7564H169.434C169.412 32.7396 168.806 32.0688 167.895 32.0688ZM169.407 35.6143H170.323C170.046 36.5992 169.162 37.2008 167.906 37.2008C166.314 37.2008 165.319 36.0509 165.319 34.2355C165.319 32.4308 166.33 31.2596 167.906 31.2596C169.455 31.2596 170.397 32.3616 170.397 34.145V34.4964H166.272V34.539C166.319 35.6729 166.953 36.3916 167.927 36.3916C168.667 36.3916 169.168 36.1201 169.407 35.6143ZM171.702 32.9312C171.702 31.9783 172.623 31.2596 173.842 31.2596C175.045 31.2596 175.881 31.8559 176.003 32.7982H175.098C174.976 32.3403 174.528 32.0369 173.836 32.0369C173.155 32.0369 172.623 32.3829 172.623 32.894C172.623 33.2879 172.942 33.5328 173.618 33.6978L174.502 33.9108C175.582 34.1716 176.104 34.6401 176.104 35.4653C176.104 36.4927 175.109 37.2008 173.804 37.2008C172.527 37.2008 171.648 36.5885 171.547 35.6356H172.489C172.644 36.1201 173.102 36.4288 173.836 36.4288C174.608 36.4288 175.162 36.0615 175.162 35.5345C175.162 35.1405 174.864 34.8744 174.252 34.7253L173.267 34.4857C172.191 34.2249 171.702 33.7617 171.702 32.9312ZM178.298 37.1528C177.92 37.1528 177.605 36.8388 177.605 36.4608C177.605 36.0775 177.92 35.7687 178.298 35.7687C178.681 35.7687 178.99 36.0775 178.99 36.4608C178.99 36.8388 178.681 37.1528 178.298 37.1528Z" fill="black"/>
<defs>
<linearGradient id="paint0_linear_1393_7693" x1="5.54054" y1="7.10507" x2="24.0011" y2="0.700457" gradientUnits="userSpaceOnUse">
<stop stop-color="#E7B83E"/>
<stop offset="0.235" stop-color="#F6E4A3"/>
<stop offset="0.525" stop-color="#E0B734"/>
<stop offset="0.758437" stop-color="#F4E0A0"/>
<stop offset="1" stop-color="#E3BB2E"/>
</linearGradient>
<linearGradient id="paint1_linear_1393_7693" x1="0.987439" y1="16.1318" x2="15.78" y2="8.92273" gradientUnits="userSpaceOnUse">
<stop stop-color="#E7B83E"/>
<stop offset="0.235" stop-color="#F6E4A3"/>
<stop offset="0.525" stop-color="#E0B734"/>
<stop offset="0.758437" stop-color="#F4E0A0"/>
<stop offset="1" stop-color="#E3BB2E"/>
</linearGradient>
</defs>
</svg>
