<svg width="279" height="124" viewBox="0 0 279 124" fill="none" xmlns="http://www.w3.org/2000/svg">
<path d="M0 41.6442V4C0 1.79086 1.79087 0 4.00001 0H275C277.209 0 279 1.79086 279 4V42.7586C279 44.4816 277.897 46.0109 276.262 46.5544L220.067 65.2349C215.759 66.6669 216.789 73.0307 221.329 73.0307H275C277.209 73.0307 279 74.8215 279 77.0307V120C279 122.209 277.209 124 275 124H80.8462C78.637 124 76.8462 122.209 76.8462 120V75.8684C76.8462 74.1687 77.9203 72.6546 79.5245 72.0931L132.866 53.4195C137.117 51.9316 136.048 45.6442 131.545 45.6442H4C1.79086 45.6442 0 43.8533 0 41.6442Z" fill="#FFB089"/>
</svg>
